<?xml version="1.0" encoding="UTF-8"?>
<svg width="14px" height="14px" viewBox="0 0 14 14" version="1.1" xmlns="http://www.w3.org/2000/svg" xmlns:xlink="http://www.w3.org/1999/xlink">
    <!-- Generator: Sketch 60.1 (88133) - https://sketch.com -->
    <title>密码</title>
    <desc>Created with Sketch.</desc>
    <g id="二期优化" stroke="none" stroke-width="1" fill="none" fill-rule="evenodd" opacity="0.6">
        <g id="登陆页-初始" transform="translate(-469.000000, -502.000000)">
            <g id="Group-4" transform="translate(456.000000, 385.000000)">
                <g id="密码" transform="translate(12.000000, 116.000000)">
                    <rect id="Rectangle-11" fill-opacity="0" fill="#FFFFFF" x="0" y="0" width="16" height="16"></rect>
                    <path d="M11,5 C11,3.34314575 9.65685425,2 8,2 C6.34314575,2 5,3.34314575 5,5 L11,5 Z M13.5,6 L2.5,6 C2.25454011,6 2.05039163,6.17687516 2.00805567,6.41012437 L2,6.5 L2,13.5 C2,13.7454599 2.17687516,13.9496084 2.41012437,13.9919443 L2.5,14 L13.5,14 C13.7454599,14 13.9496084,13.8231248 13.9919443,13.5898756 L14,13.5 L14,6.5 C14,6.22385763 13.7761424,6 13.5,6 Z M8,8 C8.55228475,8 9,8.44771525 9,9 C9,9.36968103 8.79940038,9.69250951 8.5011143,9.86557226 L8.5,11.5 C8.5,11.7761424 8.27614237,12 8,12 C7.72385763,12 7.5,11.7761424 7.5,11.5 L7.4998705,9.86614288 C7.20104123,9.69321974 7,9.37008772 7,9 C7,8.44771525 7.44771525,8 8,8 Z M8,1 C10.209139,1 12,2.790861 12,5 L14,5 C14.5522847,5 15,5.44771525 15,6 L15,14 C15,14.5522847 14.5522847,15 14,15 L2,15 C1.44771525,15 1,14.5522847 1,14 L1,6 C1,5.44771525 1.44771525,5 2,5 L4,5 C4,2.790861 5.790861,1 8,1 Z" id="形状结合" fill="#273553"></path>
                </g>
            </g>
        </g>
    </g>
</svg>