<?xml version="1.0" encoding="UTF-8"?>
<svg width="14px" height="14px" viewBox="0 0 14 14" version="1.1" xmlns="http://www.w3.org/2000/svg" xmlns:xlink="http://www.w3.org/1999/xlink">
    <!-- Generator: Sketch 60.1 (88133) - https://sketch.com -->
    <title>Group 15</title>
    <desc>Created with Sketch.</desc>
    <g id="二期优化" stroke="none" stroke-width="1" fill="none" fill-rule="evenodd" opacity="0.6">
        <g id="登陆页-初始" transform="translate(-469.000000, -438.000000)">
            <g id="Group-4" transform="translate(456.000000, 385.000000)">
                <g id="Group-15" transform="translate(12.000000, 52.000000)">
                    <g id="账户">
                        <rect id="Rectangle-10" fill-opacity="0" fill="#FFFFFF" x="0" y="0" width="16" height="16"></rect>
                        <path d="M1,15 L1.00405902,14.7593502 L1.01087525,14.6042095 C1.00374903,14.5705965 1,14.5357361 1,14.5 C1,14.4370616 1.01162887,14.3768392 1.03285521,14.3213643 C1.3021362,11.5189576 3.22396859,9.19951844 5.81220162,8.34867931 C4.72119382,7.63536303 4,6.40190344 4,5 C4,2.790861 5.790861,1 8,1 C10.209139,1 12,2.790861 12,5 C12,6.40190344 11.2788062,7.63536303 10.1871896,8.3496077 C12.7760314,9.19951844 14.6978638,11.5189576 14.9675109,14.3212121 C14.9883711,14.3768392 15,14.4370616 15,14.5 C15,14.5357361 14.996251,14.5705965 14.9891247,14.6042095 C14.9918476,14.6552106 14.9941794,14.7072081 14.995941,14.7593502 L15,15 L1,15 Z M8,9 C5.02693683,9 2.55892549,11.1623839 2.08292631,14.0001915 L13.9170737,14.0001915 C13.4410745,11.1623839 10.9730632,9 8,9 Z M8,2 C6.34314575,2 5,3.34314575 5,5 C5,6.65685425 6.34314575,8 8,8 C9.65685425,8 11,6.65685425 11,5 C11,3.34314575 9.65685425,2 8,2 Z" id="形状结合" fill="#273553"></path>
                    </g>
                </g>
            </g>
        </g>
    </g>
</svg>